<?xml version="1.0" encoding="UTF-8"?>
<svg id="Calque_1" xmlns="http://www.w3.org/2000/svg" version="1.1" viewBox="0 0 1080 1080">
  <!-- Generator: Adobe Illustrator 29.3.0, SVG Export Plug-In . SVG Version: 2.1.0 Build 146)  -->
  <path d="M238.28,772.75v-134.9l-20,6.57v-353.07h-74.4c-7.01,51.12-45.82,100.14-143.88,97.56v75.1h123.53v211.52l32.09-10.54v107.76h-63.69v6.42h208.69v-6.42h-62.34Z"/>
  <polygon points="695.59 668.38 695.59 661.95 635.28 661.95 635.28 507.49 617.42 513.36 617.42 291.34 528.29 291.34 314.92 577.7 314.92 612.68 393.65 586.83 393.53 586.83 520.56 416.28 522.67 416.28 522.67 544.47 552.62 534.63 552.62 661.95 378.34 661.95 424.98 576.54 416.22 579.42 366.99 668.38 552.62 668.38 552.62 772.75 492.99 772.75 492.99 779.17 695.59 779.17 695.59 772.75 635.28 772.75 635.28 668.38 695.59 668.38"/>
  <path d="M916.61,479.01c-49.44,0-84.08,21.61-110.88,62.06l-1.42-1.35,4.1-89.07,43.28-14.21,11.09-62.98h202.84v-82.12h-274.43l-31.24,175.22,42.19-13.86-6.37,113.33h4.33c25.57-56.92,68.73-78.57,104.8-78.57,66.07,0,79.2,48.46,79.2,138.58,0,109.77-24.15,156.77-85.96,156.77-32.68,0-46.89-20.58-46.89-44.98s-2.98-62.34-39.07-62.34c-28.42,0-44.04,12.88-44.04,37.95,0,40.66,56.12,75.21,129.29,75.21,107.98,0,182.57-85.37,182.57-168.03s-71.75-141.62-163.39-141.62Z"/>
</svg>